<?xml version="1.0" standalone="no"?>
<!DOCTYPE svg PUBLIC "-//W3C//DTD SVG 20010904//EN"
 "http://www.w3.org/TR/2001/REC-SVG-20010904/DTD/svg10.dtd">
<svg version="1.0" xmlns="http://www.w3.org/2000/svg"
 width="700.000000pt" height="700.000000pt" viewBox="0 0 700.000000 700.000000"
 preserveAspectRatio="xMidYMid meet">
<metadata>
Created by potrace 1.11, written by Peter Selinger 2001-2013
</metadata>
<g transform="translate(0.000000,700.000000) scale(0.100000,-0.100000)"
fill="#000000" stroke="none">
<path d="M3278 6995 c-2 -1 -34 -5 -73 -9 -76 -6 -215 -23 -255 -31 -14 -3
-50 -9 -80 -15 -107 -18 -146 -27 -265 -59 -594 -162 -1116 -457 -1543 -874
-93 -91 -200 -205 -243 -262 -13 -16 -30 -37 -38 -45 -39 -40 -212 -286 -257
-365 -6 -11 -35 -60 -64 -110 -218 -375 -364 -812 -434 -1306 -32 -220 -26
-691 10 -899 3 -19 8 -50 10 -69 3 -19 9 -52 14 -75 5 -22 12 -57 15 -76 3
-19 13 -62 21 -95 9 -33 17 -68 19 -77 16 -80 119 -394 136 -413 5 -5 9 -14 9
-21 0 -6 9 -32 20 -58 12 -25 21 -49 22 -53 4 -26 177 -348 242 -451 111 -174
262 -375 356 -473 19 -20 51 -54 71 -75 552 -592 1403 -1000 2234 -1071 170
-14 566 -8 685 11 14 2 63 9 110 16 152 21 374 70 505 111 735 230 1339 646
1771 1220 66 88 204 286 204 294 0 1 18 33 40 69 167 275 343 730 405 1046 32
166 53 306 62 425 14 165 7 561 -12 690 -2 17 -6 48 -9 70 -14 109 -45 264
-91 455 -33 136 -135 410 -217 582 l-61 127 -146 -126 c-80 -70 -148 -129
-151 -132 -3 -3 -54 -49 -115 -101 -60 -52 -123 -107 -140 -121 -55 -47 -267
-233 -435 -378 -91 -79 -177 -155 -193 -170 l-27 -25 -33 34 c-18 19 -93 105
-167 190 -74 85 -166 191 -205 235 -38 44 -97 111 -130 149 -33 38 -65 74 -70
80 -6 6 -67 76 -135 156 -69 80 -139 161 -156 180 -78 87 -144 165 -144 171 0
3 21 23 47 45 26 21 54 46 62 54 9 9 63 56 121 105 57 50 112 97 120 105 9 8
30 26 46 40 49 41 268 233 280 244 6 6 33 30 60 52 27 23 65 56 84 73 19 17
112 97 207 178 94 81 172 153 172 158 1 6 -45 40 -102 78 -56 37 -107 72 -114
77 -7 6 -15 10 -17 10 -3 0 -34 17 -68 38 -76 46 -301 157 -418 205 -155 65
-451 158 -575 182 -200 39 -280 52 -361 60 -32 4 -75 9 -94 11 -38 6 -516 14
-522 9z m349 -3206 c70 -33 146 -114 171 -179 58 -154 -20 -330 -178 -404 -69
-32 -178 -29 -251 6 -65 32 -132 100 -162 166 -29 66 -31 162 -5 231 22 57 98
142 154 174 78 42 191 45 271 6z"/>
</g>
</svg>
