<?xml version="1.0" encoding="UTF-8" standalone="no"?>
<!-- Created with Inkscape (http://www.inkscape.org/) -->

<svg
   xmlns:dc="http://purl.org/dc/elements/1.1/"
   xmlns:cc="http://creativecommons.org/ns#"
   xmlns:rdf="http://www.w3.org/1999/02/22-rdf-syntax-ns#"
   xmlns:svg="http://www.w3.org/2000/svg"
   xmlns="http://www.w3.org/2000/svg"
   xmlns:sodipodi="http://sodipodi.sourceforge.net/DTD/sodipodi-0.dtd"
   xmlns:inkscape="http://www.inkscape.org/namespaces/inkscape"
   width="188.89442"
   height="188.97322"
   viewBox="0 0 49.978314 49.999166"
   version="1.1"
   id="svg8"
   sodipodi:docname="logo.svg"
   inkscape:version="0.92.1 r"
   inkscape:export-filename="/home/matthew/Projects/Code Captured/mirdaki.github.io/public/images/logo.png"
   inkscape:export-xdpi="152.40172"
   inkscape:export-ydpi="152.40172">
  <defs
     id="defs2" />
  <sodipodi:namedview
     id="base"
     pagecolor="#ffffff"
     bordercolor="#666666"
     borderopacity="1.0"
     inkscape:pageopacity="0.0"
     inkscape:pageshadow="2"
     inkscape:zoom="1.4"
     inkscape:cx="88.936567"
     inkscape:cy="104.8112"
     inkscape:document-units="mm"
     inkscape:current-layer="layer1"
     showgrid="false"
     inkscape:measure-start="298.199,750.714"
     inkscape:measure-end="237.891,751.553"
     inkscape:window-width="956"
     inkscape:window-height="1022"
     inkscape:window-x="960"
     inkscape:window-y="30"
     inkscape:window-maximized="0"
     units="px" />
  <metadata
     id="metadata5">
    <rdf:RDF>
      <cc:Work
         rdf:about="">
        <dc:format>image/svg+xml</dc:format>
        <dc:type
           rdf:resource="http://purl.org/dc/dcmitype/StillImage" />
        <dc:title />
      </cc:Work>
    </rdf:RDF>
  </metadata>
  <g
     inkscape:label="Layer 1"
     inkscape:groupmode="layer"
     id="layer1"
     transform="translate(-41.156676,-205.85457)">
    <path
       style="color:#000000;clip-rule:nonzero;display:inline;overflow:visible;visibility:visible;opacity:1;isolation:auto;mix-blend-mode:normal;color-interpolation:sRGB;color-interpolation-filters:linearRGB;solid-color:#000000;solid-opacity:1;fill:#666666;fill-opacity:1;fill-rule:evenodd;stroke:#000000;stroke-width:0.20746887px;stroke-linecap:butt;stroke-linejoin:miter;stroke-miterlimit:4;stroke-dasharray:none;stroke-dashoffset:0;stroke-opacity:1;color-rendering:auto;image-rendering:auto;shape-rendering:auto;text-rendering:auto;enable-background:accumulate"
       d="m 65.75055,205.96089 a 24.896266,24.896265 48.958069 0 0 -15.941145,6.11539 24.896266,24.896265 48.958069 0 0 -2.430344,35.12499 24.896266,24.896265 48.958069 0 0 35.124472,2.43034 24.896266,24.896265 48.958069 0 0 5.717998,-30.24569 l -8.511628,7.4104 c -0.06083,0.053 -0.152712,0.0469 -0.205671,-0.014 l -7.378361,-8.47545 c -0.05296,-0.0608 -0.04636,-0.15271 0.01447,-0.20567 l 8.537979,-7.43314 a 24.896266,24.896265 48.958069 0 0 -14.92777,-4.7072 z m 0.395325,22.49682 a 2.3964612,2.396461 0 0 1 2.396236,2.39624 2.3964612,2.396461 0 0 1 -2.396236,2.39675 2.3964612,2.396461 0 0 1 -2.396755,-2.39675 2.3964612,2.396461 0 0 1 2.396755,-2.39624 z"
       id="path4485"
       inkscape:connector-curvature="0" />
  </g>
</svg>
